<svg version="1.1" xmlns="http://www.w3.org/2000/svg" viewBox="0 0 963 1220" width="963" height="1220" filter="invert(93%) hue-rotate(180deg)">
  <!-- svg-source:excalidraw -->
  
  <defs>
    <style class="style-fonts">
      @font-face {
        font-family: "Virgil";
        src: url("https://excalidraw.com/Virgil.woff2");
      }
      @font-face {
        font-family: "Cascadia";
        src: url("https://excalidraw.com/Cascadia.woff2");
      }
    </style>
    
  </defs>
  <rect x="0" y="0" width="963" height="1220" fill="#ffffff"></rect><g stroke-linecap="round" transform="translate(131 39) rotate(0 304.5 41)"><path d="M20.5 0 M20.5 0 C201.07 1.43, 382.73 1.15, 588.5 0 M20.5 0 C176.03 0.41, 331.81 0.03, 588.5 0 M588.5 0 C601.85 -0.58, 608.54 6.15, 609 20.5 M588.5 0 C601.82 0.25, 607.43 7.12, 609 20.5 M609 20.5 C608.4 36.84, 607.83 49.99, 609 61.5 M609 20.5 C609.1 32.03, 608.99 45.49, 609 61.5 M609 61.5 C609.73 77.03, 602.49 83.93, 588.5 82 M609 61.5 C608.43 74.55, 601.32 82.33, 588.5 82 M588.5 82 C460.05 84.14, 331.83 83.34, 20.5 82 M588.5 82 C409.43 84.25, 230.71 83.96, 20.5 82 M20.5 82 C5.9 81.98, -1.13 75.12, 0 61.5 M20.5 82 C6.58 80.87, 1.19 77.45, 0 61.5 M0 61.5 C1.31 48.17, 0.88 34.13, 0 20.5 M0 61.5 C-0.24 48.69, -0.04 35.13, 0 20.5 M0 20.5 C0.52 7.38, 5.49 0.98, 20.5 0 M0 20.5 C0.3 8.78, 7.38 -0.2, 20.5 0" stroke="#1e1e1e" stroke-width="1" fill="none"></path></g><g transform="translate(354 70) rotate(0 51.13996124267578 12.5)"><text x="0" y="0" font-family="Virgil, Segoe UI Emoji" font-size="20px" fill="#1e1e1e" text-anchor="start" style="white-space: pre;" direction="ltr" dominant-baseline="text-before-edge">navegacion</text></g><g stroke-linecap="round" transform="translate(306 159) rotate(0 153.5 36)"><path d="M18 0 M18 0 C115.66 -0.36, 211.77 -0.78, 289 0 M18 0 C88.41 0.66, 158.2 -0.07, 289 0 M289 0 C301.98 0.26, 308.7 6.47, 307 18 M289 0 C300.8 0.51, 307.15 4.31, 307 18 M307 18 C308.64 24.93, 305.24 34.3, 307 54 M307 18 C307.25 29.62, 306.52 40.35, 307 54 M307 54 C305.24 66.37, 299.78 71.99, 289 72 M307 54 C308.81 65.26, 299.8 72.63, 289 72 M289 72 C198.55 73.2, 110.05 73.06, 18 72 M289 72 C188.04 72.01, 88.16 72.33, 18 72 M18 72 C5.57 73.27, 0.96 65.91, 0 54 M18 72 C7.41 71.56, -0.48 65.84, 0 54 M0 54 C-0.01 42.06, 1.99 30.57, 0 18 M0 54 C-0.41 40.69, 0.47 27.17, 0 18 M0 18 C-1.66 7.93, 5.29 0.57, 18 0 M0 18 C2.25 5.39, 7.97 -0.92, 18 0" stroke="#1e1e1e" stroke-width="1" fill="none"></path></g><g transform="translate(449 182) rotate(0 7.649993896484375 12.5)"><text x="0" y="0" font-family="Virgil, Segoe UI Emoji" font-size="20px" fill="#1e1e1e" text-anchor="start" style="white-space: pre;" direction="ltr" dominant-baseline="text-before-edge">h1</text></g><g stroke-linecap="round" transform="translate(371 253) rotate(0 92 19)"><path d="M9.5 0 M9.5 0 C48.53 -0.56, 83.64 2.02, 174.5 0 M9.5 0 C52.91 -0.76, 96.45 -1, 174.5 0 M174.5 0 C180.77 -1.81, 182.61 2.39, 184 9.5 M174.5 0 C180.99 -0.44, 182.34 4.51, 184 9.5 M184 9.5 C184.32 13.57, 182.47 22.55, 184 28.5 M184 9.5 C183.56 15.29, 183.72 20.68, 184 28.5 M184 28.5 C185.32 36.31, 180.85 37.03, 174.5 38 M184 28.5 C182.51 32.88, 179.05 38.31, 174.5 38 M174.5 38 C128.38 38.49, 80.52 41.19, 9.5 38 M174.5 38 C107.84 38.97, 42.49 38.18, 9.5 38 M9.5 38 C3.06 39.75, -0.96 35.69, 0 28.5 M9.5 38 C2.08 37.64, -0.28 36.82, 0 28.5 M0 28.5 C0.29 21.5, 1.81 14.95, 0 9.5 M0 28.5 C-0.56 24.86, -0.35 19.93, 0 9.5 M0 9.5 C-0.52 4.72, 4.82 -0.45, 9.5 0 M0 9.5 C-0.1 4.73, 1.42 -1.98, 9.5 0" stroke="#1e1e1e" stroke-width="1" fill="none"></path></g><g transform="translate(423.6500244140625 259.5) rotate(0 39.3499755859375 12.5)"><text x="39.3499755859375" y="0" font-family="Virgil, Segoe UI Emoji" font-size="20px" fill="#1e1e1e" text-anchor="middle" style="white-space: pre;" direction="ltr" dominant-baseline="text-before-edge">h2 o h3</text></g><g stroke-linecap="round" transform="translate(134 326) rotate(0 327.5 58)"><path d="M29 0 M29 0 C261.92 -0.4, 494.62 -0.05, 626 0 M29 0 C185.6 -1.92, 342.4 -2.15, 626 0 M626 0 C645.09 1.73, 656.4 8.32, 655 29 M626 0 C647.53 0.19, 655.03 11.7, 655 29 M655 29 C655.83 47.08, 656.12 66.48, 655 87 M655 29 C655.67 47.24, 654.81 66.61, 655 87 M655 87 C653.48 104.61, 646.42 115.75, 626 116 M655 87 C652.89 107.65, 645.42 117.84, 626 116 M626 116 C439.7 117.09, 253.13 117.18, 29 116 M626 116 C397.17 114.14, 169.04 114.49, 29 116 M29 116 C7.69 114.47, -1.76 104.76, 0 87 M29 116 C10.26 116.13, 0.52 105.87, 0 87 M0 87 C0.06 69.99, 1.52 54.76, 0 29 M0 87 C-0.98 70.45, -1.3 54.1, 0 29 M0 29 C1.19 9.23, 11.59 1.2, 29 0 M0 29 C0.9 11.11, 7.77 0.07, 29 0" stroke="#1e1e1e" stroke-width="1" fill="none"></path></g><g transform="translate(438 374) rotate(0 30.33997344970703 12.5)"><text x="0" y="0" font-family="Virgil, Segoe UI Emoji" font-size="20px" fill="#1e1e1e" text-anchor="start" style="white-space: pre;" direction="ltr" dominant-baseline="text-before-edge">imagen</text></g><g stroke-linecap="round" transform="translate(370 476) rotate(0 112 33.5)"><path d="M16.75 0 M16.75 0 C62.4 -3.54, 108.93 -2.34, 207.25 0 M16.75 0 C85.8 -2.06, 152.54 -1.9, 207.25 0 M207.25 0 C218.41 0.35, 224.45 3.77, 224 16.75 M207.25 0 C217.92 -0.6, 222.8 5.01, 224 16.75 M224 16.75 C223.13 26.62, 224.9 34.79, 224 50.25 M224 16.75 C223.17 25.78, 223.65 35.47, 224 50.25 M224 50.25 C224.73 61.11, 218.96 68.39, 207.25 67 M224 50.25 C223.14 59.28, 216.48 67.69, 207.25 67 M207.25 67 C160.77 65.36, 111.89 66.84, 16.75 67 M207.25 67 C155.17 65.16, 105.03 66.14, 16.75 67 M16.75 67 C5.48 67.13, 0.27 62.14, 0 50.25 M16.75 67 C3.83 66.63, 1.72 61.8, 0 50.25 M0 50.25 C-0.04 43.32, -1.55 32.44, 0 16.75 M0 50.25 C-0.6 40.62, 0.01 32.47, 0 16.75 M0 16.75 C1.49 5.19, 5.7 1.12, 16.75 0 M0 16.75 C-1.43 6.1, 7.45 1.08, 16.75 0" stroke="#1e1e1e" stroke-width="1" fill="none"></path></g><g transform="translate(469.9400100708008 497) rotate(0 12.059989929199219 12.5)"><text x="12.059989929199219" y="0" font-family="Virgil, Segoe UI Emoji" font-size="20px" fill="#1e1e1e" text-anchor="middle" style="white-space: pre;" direction="ltr" dominant-baseline="text-before-edge">h2</text></g><g stroke-linecap="round" transform="translate(153 589) rotate(0 109.5 48.5)"><path d="M24.25 0 M24.25 0 C59.28 0.48, 99 -0.43, 194.75 0 M24.25 0 C75.21 -0.3, 124.67 0.31, 194.75 0 M194.75 0 C211 1.49, 218.89 8.21, 219 24.25 M194.75 0 C211.23 0.83, 217.25 7.71, 219 24.25 M219 24.25 C217.89 41.96, 218.84 62.36, 219 72.75 M219 24.25 C218.07 34.98, 218.02 44.49, 219 72.75 M219 72.75 C218.48 90.37, 212.41 96.61, 194.75 97 M219 72.75 C219.13 90.2, 209.49 97.51, 194.75 97 M194.75 97 C128.43 99.49, 64.93 99.72, 24.25 97 M194.75 97 C159.94 98.71, 122.84 98.47, 24.25 97 M24.25 97 C7.4 97.77, -0.24 87.92, 0 72.75 M24.25 97 C6.91 98.44, -2.03 88.18, 0 72.75 M0 72.75 C-0.05 58.19, -0.05 40.68, 0 24.25 M0 72.75 C-0.45 58.18, 0.94 44.63, 0 24.25 M0 24.25 C-0.13 8.08, 7.33 -0.97, 24.25 0 M0 24.25 C0.32 8.6, 7.79 -1.39, 24.25 0" stroke="#1e1e1e" stroke-width="1" fill="none"></path></g><g stroke-linecap="round" transform="translate(449.5 585.5) rotate(0 109.5 48.5)"><path d="M24.25 0 M24.25 0 C65.81 -1.9, 104.11 1.81, 194.75 0 M24.25 0 C90.62 0.47, 157.68 0.69, 194.75 0 M194.75 0 C209.92 -1.02, 220.25 6.32, 219 24.25 M194.75 0 C210.18 0.73, 221.28 8.41, 219 24.25 M219 24.25 C219.46 39.83, 217.68 56.58, 219 72.75 M219 24.25 C219.85 34.57, 218.97 44.64, 219 72.75 M219 72.75 C218.03 89.19, 211.37 96.74, 194.75 97 M219 72.75 C217.61 88.15, 210.16 97.95, 194.75 97 M194.75 97 C125.04 94.64, 57.69 95.5, 24.25 97 M194.75 97 C153.33 95.75, 111.37 96.41, 24.25 97 M24.25 97 C7.29 96.97, -0.35 89.76, 0 72.75 M24.25 97 C7.55 98.69, -2.18 87.73, 0 72.75 M0 72.75 C1.74 59.04, -0.13 47.6, 0 24.25 M0 72.75 C-0.93 56.8, 0.36 40.76, 0 24.25 M0 24.25 C-1.26 8.71, 8.39 1.91, 24.25 0 M0 24.25 C2 7.82, 7.52 0.41, 24.25 0" stroke="#1e1e1e" stroke-width="1" fill="none"></path></g><g stroke-linecap="round" transform="translate(158.5 722.5) rotate(0 109.5 48.5)"><path d="M24.25 0 M24.25 0 C69.08 -2.78, 113.55 -3.1, 194.75 0 M24.25 0 C65.6 0.3, 105.9 0.68, 194.75 0 M194.75 0 C212.58 0.87, 218.2 8.05, 219 24.25 M194.75 0 C210.51 0.97, 218.47 9.77, 219 24.25 M219 24.25 C219.54 32.7, 220.68 42.72, 219 72.75 M219 24.25 C219.35 39.37, 218.17 54.2, 219 72.75 M219 72.75 C220.18 90.9, 209.66 97.62, 194.75 97 M219 72.75 C219.36 91.11, 212.92 96.74, 194.75 97 M194.75 97 C146.98 93.8, 101.27 94.99, 24.25 97 M194.75 97 C159.69 95.9, 126.01 95.68, 24.25 97 M24.25 97 C7.93 95.41, -0.45 88.43, 0 72.75 M24.25 97 C9.67 97.22, -0.2 88.94, 0 72.75 M0 72.75 C-1.37 54.54, 0.16 35.55, 0 24.25 M0 72.75 C-1.25 62.67, -1.13 51.85, 0 24.25 M0 24.25 C-0.27 8.66, 7.19 -1.35, 24.25 0 M0 24.25 C-2.06 10.23, 7.44 -0.99, 24.25 0" stroke="#1e1e1e" stroke-width="1" fill="none"></path></g><g stroke-linecap="round" transform="translate(459.5 729.5) rotate(0 109.5 48.5)"><path d="M24.25 0 M24.25 0 C85.5 0.38, 143.8 0.39, 194.75 0 M24.25 0 C74.18 -0.63, 125.63 -0.27, 194.75 0 M194.75 0 C210.03 -1.35, 217.21 9.95, 219 24.25 M194.75 0 C210.27 -0.99, 218.69 7.79, 219 24.25 M219 24.25 C217.49 34.58, 216.9 44.39, 219 72.75 M219 24.25 C219.77 36.01, 219.11 49.25, 219 72.75 M219 72.75 C220.46 89.76, 210.42 97.1, 194.75 97 M219 72.75 C219.47 90.31, 211.26 96.47, 194.75 97 M194.75 97 C146.96 95.47, 99.73 94.71, 24.25 97 M194.75 97 C129.59 95.3, 62.74 95.26, 24.25 97 M24.25 97 C6.18 96.76, -1.76 88.04, 0 72.75 M24.25 97 C9.97 96.5, -1.27 89.2, 0 72.75 M0 72.75 C-2.17 55.97, 0.48 41.34, 0 24.25 M0 72.75 C0.43 60.47, 0.5 50.13, 0 24.25 M0 24.25 C-1.06 8.12, 8.74 0.27, 24.25 0 M0 24.25 C0.1 9.06, 7.68 0.43, 24.25 0" stroke="#1e1e1e" stroke-width="1" fill="none"></path></g><g transform="translate(197 616) rotate(0 37.639976501464844 12.5)"><text x="0" y="0" font-family="Virgil, Segoe UI Emoji" font-size="20px" fill="#1e1e1e" text-anchor="start" style="white-space: pre;" direction="ltr" dominant-baseline="text-before-edge">enlace 1</text></g><g transform="translate(508.36002349853516 619.5) rotate(0 37.639976501464844 12.5)"><text x="0" y="0" font-family="Virgil, Segoe UI Emoji" font-size="20px" fill="#1e1e1e" text-anchor="start" style="white-space: pre;" direction="ltr" dominant-baseline="text-before-edge">enlace 1</text></g><g transform="translate(223.36002349853516 758.5) rotate(0 37.639976501464844 12.5)"><text x="0" y="0" font-family="Virgil, Segoe UI Emoji" font-size="20px" fill="#1e1e1e" text-anchor="start" style="white-space: pre;" direction="ltr" dominant-baseline="text-before-edge">enlace 1</text></g><g transform="translate(539.3600234985352 765.5) rotate(0 37.639976501464844 12.5)"><text x="0" y="0" font-family="Virgil, Segoe UI Emoji" font-size="20px" fill="#1e1e1e" text-anchor="start" style="white-space: pre;" direction="ltr" dominant-baseline="text-before-edge">enlace 1</text></g><g stroke-linecap="round" transform="translate(184 887) rotate(0 108 35)"><path d="M17.5 0 M17.5 0 C54.46 0.57, 90.5 1.38, 198.5 0 M17.5 0 C60.05 1.07, 101.93 0.55, 198.5 0 M198.5 0 C210.34 -1.48, 214.37 5.67, 216 17.5 M198.5 0 C211.24 -0.66, 215.76 7.54, 216 17.5 M216 17.5 C216.44 25.35, 213.99 35.13, 216 52.5 M216 17.5 C215.63 29.08, 215.57 41.69, 216 52.5 M216 52.5 C217.1 64.28, 211.16 69.46, 198.5 70 M216 52.5 C217.84 64.53, 209.24 72.02, 198.5 70 M198.5 70 C148.77 70.37, 101.85 67.24, 17.5 70 M198.5 70 C133.17 70.21, 69.38 69.65, 17.5 70 M17.5 70 C4.55 70.37, -1.79 65.49, 0 52.5 M17.5 70 C4.64 71.43, -0.83 63.46, 0 52.5 M0 52.5 C-0.19 38.51, 1.87 26.17, 0 17.5 M0 52.5 C0.28 43.02, -1.21 32.77, 0 17.5 M0 17.5 C-0.74 6.6, 7.08 1.4, 17.5 0 M0 17.5 C2.06 7.09, 6.89 -1.6, 17.5 0" stroke="#1e1e1e" stroke-width="1" fill="none"></path></g><g transform="translate(214 914) rotate(0 85.97991943359375 12.5)"><text x="0" y="0" font-family="Virgil, Segoe UI Emoji" font-size="20px" fill="#1e1e1e" text-anchor="start" style="white-space: pre;" direction="ltr" dominant-baseline="text-before-edge">acordeon servicio1</text></g><g stroke-linecap="round" transform="translate(431 887) rotate(0 108 35)"><path d="M17.5 0 M17.5 0 C72.35 0.2, 130.08 -0.66, 198.5 0 M17.5 0 C88.13 -0.3, 159.8 -1.32, 198.5 0 M198.5 0 C210.52 -1.56, 214.44 4.61, 216 17.5 M198.5 0 C210.18 1.53, 214.15 4.31, 216 17.5 M216 17.5 C214.56 30.9, 216.63 39.58, 216 52.5 M216 17.5 C216.34 28.45, 216.49 41.32, 216 52.5 M216 52.5 C214.17 66.04, 211.67 71.37, 198.5 70 M216 52.5 C216.78 66.26, 210.27 69.99, 198.5 70 M198.5 70 C143.05 68.78, 90.57 71.65, 17.5 70 M198.5 70 C159.15 68.52, 120.91 67.92, 17.5 70 M17.5 70 C4.38 70.33, -0.67 64.36, 0 52.5 M17.5 70 C4.22 68.33, -1.04 61.95, 0 52.5 M0 52.5 C-1.51 44.73, -0.11 31.79, 0 17.5 M0 52.5 C-0.39 42.41, -0.73 32.01, 0 17.5 M0 17.5 C-0.74 6.46, 4.7 -0.09, 17.5 0 M0 17.5 C0.35 4.24, 3.55 1.16, 17.5 0" stroke="#1e1e1e" stroke-width="1" fill="none"></path></g><g stroke-linecap="round" transform="translate(678 888) rotate(0 108 35)"><path d="M17.5 0 M17.5 0 C85.16 1.52, 157.17 -0.47, 198.5 0 M17.5 0 C61.17 1.07, 104.09 -0.41, 198.5 0 M198.5 0 C210.49 -0.67, 216.19 4.43, 216 17.5 M198.5 0 C208.49 -1.04, 213.79 5.15, 216 17.5 M216 17.5 C217.64 30.78, 214.16 43.37, 216 52.5 M216 17.5 C215.73 29.66, 215.17 42.48, 216 52.5 M216 52.5 C216.63 63.04, 210.08 70.31, 198.5 70 M216 52.5 C214.4 61.88, 211.33 70.21, 198.5 70 M198.5 70 C140.17 69.3, 80.97 68.9, 17.5 70 M198.5 70 C140.41 70.15, 83.11 69.68, 17.5 70 M17.5 70 C4.81 70.84, -1.22 65.13, 0 52.5 M17.5 70 C6.84 70.97, 0.95 63.73, 0 52.5 M0 52.5 C-0.25 43.72, -1.85 37.94, 0 17.5 M0 52.5 C0.12 42.88, -0.4 34.72, 0 17.5 M0 17.5 C1.01 6.53, 4.49 -0.75, 17.5 0 M0 17.5 C-0.02 8.08, 5.29 -2.09, 17.5 0" stroke="#1e1e1e" stroke-width="1" fill="none"></path></g><g transform="translate(456.02008056640625 911.5) rotate(0 85.97991943359375 12.5)"><text x="0" y="0" font-family="Virgil, Segoe UI Emoji" font-size="20px" fill="#1e1e1e" text-anchor="start" style="white-space: pre;" direction="ltr" dominant-baseline="text-before-edge">acordeon servicio1</text></g><g transform="translate(700.0200805664062 914.5) rotate(0 85.97991943359375 12.5)"><text x="0" y="0" font-family="Virgil, Segoe UI Emoji" font-size="20px" fill="#1e1e1e" text-anchor="start" style="white-space: pre;" direction="ltr" dominant-baseline="text-before-edge">acordeon servicio1</text></g><g stroke-linecap="round" transform="translate(115 999) rotate(0 395 64.5)"><path d="M32 0 M32 0 C315.87 0.73, 599.43 0.76, 758 0 M32 0 C308.82 -1.31, 584.92 -1.53, 758 0 M758 0 C779.56 -1.4, 790.54 12.17, 790 32 M758 0 C778.63 1.69, 788.07 8.96, 790 32 M790 32 C789.97 47.49, 787.99 67.31, 790 97 M790 32 C790.13 57.11, 789.28 82.18, 790 97 M790 97 C790.07 118.11, 778.97 127.73, 758 129 M790 97 C788.6 117.29, 780.23 129.43, 758 129 M758 129 C599.97 127.32, 441.37 127.8, 32 129 M758 129 C502.63 130.34, 246.5 130.13, 32 129 M32 129 C10.06 130.77, -0.48 117.22, 0 97 M32 129 C10.2 127.67, -1.95 120.6, 0 97 M0 97 C-0.01 83.23, -0.98 65.79, 0 32 M0 97 C-0.35 82.68, 0.55 66.89, 0 32 M0 32 C1.75 10.73, 9.75 -0.43, 32 0 M0 32 C0.74 11.67, 10.87 0.49, 32 0" stroke="#1e1e1e" stroke-width="1" fill="none"></path></g><g transform="translate(142 969) rotate(0 31.359962463378906 12.5)"><text x="0" y="0" font-family="Virgil, Segoe UI Emoji" font-size="20px" fill="#1e1e1e" text-anchor="start" style="white-space: pre;" direction="ltr" dominant-baseline="text-before-edge">footer</text></g><g stroke-linecap="round" transform="translate(119 1005) rotate(0 51.5 60)"><path d="M46.28 1.13 C54.25 -0.51, 64.3 1.86, 72.22 5.73 C80.15 9.6, 88.59 16.33, 93.82 24.35 C99.05 32.36, 102.89 43.83, 103.6 53.82 C104.3 63.8, 101.66 75.04, 98.07 84.24 C94.48 93.44, 88.91 103.07, 82.05 109.01 C75.19 114.95, 65.43 118.95, 56.92 119.89 C48.42 120.83, 38.77 118.84, 31.04 114.67 C23.3 110.5, 15.52 103.1, 10.51 94.87 C5.49 86.64, 1.93 75.18, 0.93 65.28 C-0.08 55.38, 1.16 44.42, 4.48 35.48 C7.79 26.55, 12.15 17.36, 20.82 11.66 C29.49 5.96, 48.74 2.55, 56.51 1.28 C64.28 0.02, 67.45 3.3, 67.43 4.09 M40.94 1.07 C49.09 -1.62, 61.17 0.18, 69.28 3.46 C77.39 6.74, 84.19 13.29, 89.62 20.76 C95.05 28.24, 100.09 38.63, 101.86 48.29 C103.63 57.96, 102.89 69.28, 100.23 78.73 C97.57 88.19, 92.23 98.32, 85.9 105.04 C79.56 111.77, 70.96 117.03, 62.23 119.07 C53.49 121.11, 41.61 120.78, 33.51 117.28 C25.41 113.79, 19.22 105.72, 13.63 98.11 C8.04 90.5, 1.7 81.36, -0.03 71.64 C-1.76 61.92, 0 49.53, 3.26 39.76 C6.52 30, 13.3 19.36, 19.55 13.04 C25.8 6.72, 37.15 3.66, 40.77 1.85 C44.39 0.03, 40.69 1.23, 41.28 2.13" stroke="#1e1e1e" stroke-width="1" fill="none"></path></g><g transform="translate(151.86402243637326 1052.5735931288073) rotate(0 18.71997833251953 12.5)"><text x="18.71997833251953" y="0" font-family="Virgil, Segoe UI Emoji" font-size="20px" fill="#1e1e1e" text-anchor="middle" style="white-space: pre;" direction="ltr" dominant-baseline="text-before-edge">logo</text></g><g stroke-linecap="round" transform="translate(246 1014) rotate(0 180.5 43.5)"><path d="M21.75 0 M21.75 0 C134.58 -2.67, 246.33 -0.9, 339.25 0 M21.75 0 C93.88 -2.45, 168.08 -1.77, 339.25 0 M339.25 0 C353.67 1.27, 362.78 8.46, 361 21.75 M339.25 0 C352.36 2.02, 360.7 7.39, 361 21.75 M361 21.75 C359.46 35.75, 362.31 48.86, 361 65.25 M361 21.75 C361.76 36.2, 361.69 49.79, 361 65.25 M361 65.25 C361.89 81.18, 352.91 85.18, 339.25 87 M361 65.25 C362.36 77.51, 352.88 88.19, 339.25 87 M339.25 87 C231.99 85.85, 124.68 85.81, 21.75 87 M339.25 87 C220.03 84.49, 102.35 84.69, 21.75 87 M21.75 87 C7.7 85.21, 0.01 81.4, 0 65.25 M21.75 87 C8.39 86.7, 0.59 78.53, 0 65.25 M0 65.25 C-2.1 49.43, 0.18 34.99, 0 21.75 M0 65.25 C-0.56 50.72, 0.92 36.72, 0 21.75 M0 21.75 C0.36 7.51, 7.42 0.18, 21.75 0 M0 21.75 C0.72 9.39, 6.02 -0.12, 21.75 0" stroke="#1e1e1e" stroke-width="1" fill="none"></path></g><g transform="translate(266 1031) rotate(0 72.5799331665039 12.5)"><text x="0" y="0" font-family="Virgil, Segoe UI Emoji" font-size="20px" fill="#1e1e1e" text-anchor="start" style="white-space: pre;" direction="ltr" dominant-baseline="text-before-edge">datos empresa</text></g><g stroke-linecap="round" transform="translate(306 1106) rotate(0 197 7)"><path d="M3.5 0 M3.5 0 C109.67 -2.7, 212.81 -1.09, 390.5 0 M3.5 0 C120.32 1.8, 238.72 1.83, 390.5 0 M390.5 0 C391.09 -1.32, 394.37 2.26, 394 3.5 M390.5 0 C394.9 -0.13, 396.18 3.15, 394 3.5 M394 3.5 C394.21 4.69, 393.94 7.24, 394 10.5 M394 3.5 C393.76 5.57, 394.23 7.8, 394 10.5 M394 10.5 C394.41 10.97, 393.27 15.21, 390.5 14 M394 10.5 C395.85 11.75, 393.25 14.53, 390.5 14 M390.5 14 C259.05 14.46, 130.11 13.99, 3.5 14 M390.5 14 C263.12 14.86, 134.64 14.31, 3.5 14 M3.5 14 C-0.21 12.67, -0.02 12.2, 0 10.5 M3.5 14 C2 13.08, 0.13 10.96, 0 10.5 M0 10.5 C0.22 8.15, -0.61 5.72, 0 3.5 M0 10.5 C0.01 8.86, 0.12 7.7, 0 3.5 M0 3.5 C1.31 0.38, 0.27 -1.76, 3.5 0 M0 3.5 C-0.49 0.18, 1.66 1.02, 3.5 0" stroke="#1e1e1e" stroke-width="1" fill="none"></path></g><g transform="translate(459 1100) rotate(0 42.26995086669922 12.5)"><text x="0" y="0" font-family="Virgil, Segoe UI Emoji" font-size="20px" fill="#1e1e1e" text-anchor="start" style="white-space: pre;" direction="ltr" dominant-baseline="text-before-edge">copyright</text></g><g stroke-linecap="round" transform="translate(746 1017) rotate(0 51.5 11)"><path d="M5.5 0 M5.5 0 C29.11 -1.54, 53.62 -1.11, 97.5 0 M5.5 0 C26.73 0.66, 46.27 0.79, 97.5 0 M97.5 0 C100.87 -0.12, 103.36 0.92, 103 5.5 M97.5 0 C100.39 1.94, 103.58 1.55, 103 5.5 M103 5.5 C104.02 9.33, 102.25 11.69, 103 16.5 M103 5.5 C102.68 9.08, 102.55 12.75, 103 16.5 M103 16.5 C103.47 19.67, 101.26 22.28, 97.5 22 M103 16.5 C104.15 18.55, 99.54 23.5, 97.5 22 M97.5 22 C72.25 19.78, 48.71 21.11, 5.5 22 M97.5 22 C74.31 23.16, 52.5 22.05, 5.5 22 M5.5 22 C0.36 21.51, 0.1 19.78, 0 16.5 M5.5 22 C0.71 22.46, -0.58 19.25, 0 16.5 M0 16.5 C-0.1 12.82, 0.93 10.47, 0 5.5 M0 16.5 C0.37 11.57, -0.57 8.15, 0 5.5 M0 5.5 C-1.02 1, 1.45 0.26, 5.5 0 M0 5.5 C-0.95 2.72, 4.12 -2.09, 5.5 0" stroke="#1e1e1e" stroke-width="1" fill="none"></path></g><g stroke-linecap="round" transform="translate(749.5 1053) rotate(0 51.5 11)"><path d="M5.5 0 M5.5 0 C29.87 0.58, 55.69 -0.62, 97.5 0 M5.5 0 C27.81 -0.64, 51.09 -0.35, 97.5 0 M97.5 0 C103.15 1.16, 103.27 3.41, 103 5.5 M97.5 0 C98.93 -2.1, 104.83 0.66, 103 5.5 M103 5.5 C102.52 8.76, 104.07 10.18, 103 16.5 M103 5.5 C102.68 9.13, 103.41 13.17, 103 16.5 M103 16.5 C103.45 21.19, 100.4 23.17, 97.5 22 M103 16.5 C102.59 18.28, 100.61 22.25, 97.5 22 M97.5 22 C71.04 24.57, 44.86 24.32, 5.5 22 M97.5 22 C70.73 20.57, 41.59 20.78, 5.5 22 M5.5 22 C2.07 20.26, -0.31 20.76, 0 16.5 M5.5 22 C0.48 21.17, 0.89 18.87, 0 16.5 M0 16.5 C-0.94 13.91, 0.1 10.85, 0 5.5 M0 16.5 C-0.22 13.37, -0.4 8.89, 0 5.5 M0 5.5 C-1.34 1.46, 3.01 -0.16, 5.5 0 M0 5.5 C2.25 0.22, 3.07 0.83, 5.5 0" stroke="#1e1e1e" stroke-width="1" fill="none"></path></g><g stroke-linecap="round" transform="translate(751.5 1088) rotate(0 51.5 11)"><path d="M5.5 0 M5.5 0 C35.76 -0.76, 64.51 -0.35, 97.5 0 M5.5 0 C39.29 1.65, 74.5 0.04, 97.5 0 M97.5 0 C100.54 0.24, 101.26 1.52, 103 5.5 M97.5 0 C101.85 -1.35, 102.17 2.72, 103 5.5 M103 5.5 C102.68 7.31, 102.99 11.03, 103 16.5 M103 5.5 C103.45 8.17, 103.54 10.93, 103 16.5 M103 16.5 C101.74 18.83, 100.79 23.18, 97.5 22 M103 16.5 C102.82 22.41, 99.56 23.24, 97.5 22 M97.5 22 C66.59 21.6, 34.47 20.26, 5.5 22 M97.5 22 C78.28 21.73, 58.13 20.55, 5.5 22 M5.5 22 C0.79 20.55, -0.45 21.1, 0 16.5 M5.5 22 C3.42 21.12, 1.48 20.38, 0 16.5 M0 16.5 C-0.27 11.21, 0.87 8.63, 0 5.5 M0 16.5 C0.06 14.21, 0.48 12.32, 0 5.5 M0 5.5 C0.62 2.09, 2.89 -0.06, 5.5 0 M0 5.5 C1.26 2.77, 2.43 -0.04, 5.5 0" stroke="#1e1e1e" stroke-width="1" fill="none"></path></g><g transform="translate(758 1015) rotate(0 43.97996520996094 12.5)"><text x="0" y="0" font-family="Virgil, Segoe UI Emoji" font-size="20px" fill="#1e1e1e" text-anchor="start" style="white-space: pre;" direction="ltr" dominant-baseline="text-before-edge">enlace ini</text></g><g transform="translate(745 1052) rotate(0 55.38995361328125 12.5)"><text x="0" y="0" font-family="Virgil, Segoe UI Emoji" font-size="20px" fill="#1e1e1e" text-anchor="start" style="white-space: pre;" direction="ltr" dominant-baseline="text-before-edge">enlace prod</text></g><g transform="translate(750.6100463867188 1086.5) rotate(0 55.809959411621094 12.5)"><text x="0" y="0" font-family="Virgil, Segoe UI Emoji" font-size="20px" fill="#1e1e1e" text-anchor="start" style="white-space: pre;" direction="ltr" dominant-baseline="text-before-edge">enlace cont</text></g><g stroke-linecap="round" transform="translate(112 456) rotate(0 388 200.5)"><path d="M32 0 M32 0 C189.12 3.09, 347.67 1.94, 744 0 M32 0 C244.74 2.71, 456.9 2.29, 744 0 M744 0 C764.12 1.35, 775.19 8.91, 776 32 M744 0 C766.6 -1.36, 778.09 8.66, 776 32 M776 32 C777.62 127.2, 776.26 223.26, 776 369 M776 32 C774.43 126.54, 774.83 221.41, 776 369 M776 369 C777.63 390.02, 765.92 402.73, 744 401 M776 369 C774.76 390.27, 766.73 401.52, 744 401 M744 401 C523.43 401.11, 303.7 400.52, 32 401 M744 401 C494.28 400.19, 245.76 400.05, 32 401 M32 401 C10.17 399.05, -0.67 390.34, 0 369 M32 401 C9.45 400.43, 2.13 391.42, 0 369 M0 369 C-1.37 254.82, 0.7 138.26, 0 32 M0 369 C-0.77 293.5, -0.65 219.75, 0 32 M0 32 C0.52 9.24, 10.64 1.23, 32 0 M0 32 C0.78 8.54, 9.28 1.49, 32 0" stroke="#1e1e1e" stroke-width="1" fill="none"></path></g><g transform="translate(56 436) rotate(0 33.96996307373047 12.5)"><text x="0" y="0" font-family="Virgil, Segoe UI Emoji" font-size="20px" fill="#1e1e1e" text-anchor="start" style="white-space: pre;" direction="ltr" dominant-baseline="text-before-edge">section</text></g><g transform="translate(160 565) rotate(0 31.819969177246094 12.5)"><text x="0" y="0" font-family="Virgil, Segoe UI Emoji" font-size="20px" fill="#1e1e1e" text-anchor="start" style="white-space: pre;" direction="ltr" dominant-baseline="text-before-edge">Article</text></g><g transform="translate(453.1800308227539 560.5) rotate(0 31.819969177246094 12.5)"><text x="0" y="0" font-family="Virgil, Segoe UI Emoji" font-size="20px" fill="#1e1e1e" text-anchor="start" style="white-space: pre;" direction="ltr" dominant-baseline="text-before-edge">Article</text></g><g transform="translate(468.1800308227539 695.5) rotate(0 31.819969177246094 12.5)"><text x="0" y="0" font-family="Virgil, Segoe UI Emoji" font-size="20px" fill="#1e1e1e" text-anchor="start" style="white-space: pre;" direction="ltr" dominant-baseline="text-before-edge">Article</text></g><g transform="translate(167.1800308227539 694.5) rotate(0 31.819969177246094 12.5)"><text x="0" y="0" font-family="Virgil, Segoe UI Emoji" font-size="20px" fill="#1e1e1e" text-anchor="start" style="white-space: pre;" direction="ltr" dominant-baseline="text-before-edge">Article</text></g><g stroke-linecap="round" transform="translate(116 872) rotate(0 406.5 49.5)"><path d="M24.75 0 M24.75 0 C301.5 0.21, 578.04 -0.41, 788.25 0 M24.75 0 C220.49 -2.06, 416.66 -2.31, 788.25 0 M788.25 0 C806.68 -0.05, 811.89 9.85, 813 24.75 M788.25 0 C804.08 -0.68, 813.21 7.96, 813 24.75 M813 24.75 C815.04 34.67, 813.29 47.93, 813 74.25 M813 24.75 C813.94 37.45, 813.64 52.73, 813 74.25 M813 74.25 C813.38 90.6, 804.49 100.72, 788.25 99 M813 74.25 C811.67 90.91, 805.05 98.77, 788.25 99 M788.25 99 C614.32 98.97, 438.52 97.62, 24.75 99 M788.25 99 C564.36 100.15, 339.56 100.38, 24.75 99 M24.75 99 C7.77 99.67, 1.22 92.74, 0 74.25 M24.75 99 C6.2 96.99, -1.53 90.51, 0 74.25 M0 74.25 C2 59.62, 0.04 44.64, 0 24.75 M0 74.25 C0.5 59.11, -0.48 43.88, 0 24.75 M0 24.75 C1.18 7.76, 7.44 1.91, 24.75 0 M0 24.75 C2.3 6.08, 9.45 1.62, 24.75 0" stroke="#1e1e1e" stroke-width="1" fill="none"></path></g><g transform="translate(57 853) rotate(0 31.929969787597656 12.5)"><text x="0" y="0" font-family="Virgil, Segoe UI Emoji" font-size="20px" fill="#1e1e1e" text-anchor="start" style="white-space: pre;" direction="ltr" dominant-baseline="text-before-edge">article</text></g><g transform="translate(137 10) rotate(0 32.53997039794922 12.5)"><text x="0" y="0" font-family="Virgil, Segoe UI Emoji" font-size="20px" fill="#1e1e1e" text-anchor="start" style="white-space: pre;" direction="ltr" dominant-baseline="text-before-edge">header</text></g><g stroke-linecap="round" transform="translate(13 131) rotate(0 470 539.5)"><path d="M32 0 M32 0 C216.71 -3.08, 402.68 -3.49, 908 0 M32 0 C378.74 -1.74, 725.17 -1.51, 908 0 M908 0 C927.61 0.71, 938.91 11.77, 940 32 M908 0 C930.7 -1.48, 941.98 12.12, 940 32 M940 32 C942.41 337.03, 942.55 642.81, 940 1047 M940 32 C941.81 332.34, 941.49 632.84, 940 1047 M940 1047 C941.06 1069.61, 928.7 1077.7, 908 1079 M940 1047 C939.32 1069.4, 928.16 1078.64, 908 1079 M908 1079 C650.38 1081.46, 393.45 1080.25, 32 1079 M908 1079 C696.07 1082.14, 483.39 1082.41, 32 1079 M32 1079 C12.16 1080.96, 0.47 1069.95, 0 1047 M32 1079 C9.58 1079.29, 2.27 1067.06, 0 1047 M0 1047 C-1.93 692.22, -1.81 337.98, 0 32 M0 1047 C-1.95 718.64, -2.51 389.52, 0 32 M0 32 C-1 9.28, 11.14 0.31, 32 0 M0 32 C2.11 8.56, 8.82 2.13, 32 0" stroke="#1e1e1e" stroke-width="1" fill="none"></path></g><g transform="translate(10 105) rotate(0 19.8599853515625 12.5)"><text x="0" y="0" font-family="Virgil, Segoe UI Emoji" font-size="20px" fill="#1e1e1e" text-anchor="start" style="white-space: pre;" direction="ltr" dominant-baseline="text-before-edge">main</text></g></svg>